<mxfile host="app.diagrams.net" modified="2023-12-21T14:22:51.964Z" agent="Mozilla/5.0 (Windows NT 10.0; Win64; x64) AppleWebKit/537.36 (KHTML, like Gecko) Chrome/119.0.0.0 Safari/537.36 OPR/105.0.0.0" etag="pBjXLDgqs40JohB-YZAX" version="22.1.11" type="github">
  <diagram name="Page-1" id="M5_T4uJHqdM-ENcfAEu-">
    <mxGraphModel dx="1515" dy="658" grid="1" gridSize="10" guides="1" tooltips="1" connect="1" arrows="1" fold="1" page="1" pageScale="1" pageWidth="850" pageHeight="1100" math="0" shadow="0">
      <root>
        <mxCell id="0" />
        <mxCell id="1" parent="0" />
        <mxCell id="pD_lM-_f9sU76VxPLS6B-2" value="" style="rounded=0;whiteSpace=wrap;html=1;strokeColor=#0000FF;shadow=1;" vertex="1" parent="1">
          <mxGeometry x="160" y="40" width="740" height="120" as="geometry" />
        </mxCell>
        <mxCell id="pD_lM-_f9sU76VxPLS6B-3" value="&lt;span style=&quot;font-size: 24px;&quot;&gt;&lt;i&gt;Tầng giao diện &lt;br&gt;người dùng&amp;nbsp;&lt;/i&gt;&lt;/span&gt;" style="text;html=1;align=center;verticalAlign=middle;resizable=0;points=[];autosize=1;strokeColor=none;fillColor=none;" vertex="1" parent="1">
          <mxGeometry x="180" y="55" width="180" height="70" as="geometry" />
        </mxCell>
        <mxCell id="pD_lM-_f9sU76VxPLS6B-4" value="&lt;font style=&quot;font-size: 18px;&quot;&gt;UI System&lt;/font&gt;" style="rounded=1;whiteSpace=wrap;html=1;" vertex="1" parent="1">
          <mxGeometry x="450" y="60" width="120" height="60" as="geometry" />
        </mxCell>
        <mxCell id="pD_lM-_f9sU76VxPLS6B-5" value="&lt;font style=&quot;font-size: 18px;&quot;&gt;UI library&lt;/font&gt;" style="rounded=1;whiteSpace=wrap;html=1;" vertex="1" parent="1">
          <mxGeometry x="600" y="60" width="120" height="60" as="geometry" />
        </mxCell>
        <mxCell id="pD_lM-_f9sU76VxPLS6B-6" value="&lt;font style=&quot;font-size: 18px;&quot;&gt;UI database&lt;/font&gt;" style="rounded=1;whiteSpace=wrap;html=1;" vertex="1" parent="1">
          <mxGeometry x="750" y="60" width="120" height="60" as="geometry" />
        </mxCell>
        <mxCell id="pD_lM-_f9sU76VxPLS6B-7" value="" style="rounded=0;whiteSpace=wrap;html=1;strokeColor=#0000FF;shadow=1;" vertex="1" parent="1">
          <mxGeometry x="160" y="210" width="740" height="120" as="geometry" />
        </mxCell>
        <mxCell id="pD_lM-_f9sU76VxPLS6B-9" value="&lt;font style=&quot;font-size: 24px;&quot;&gt;&lt;i&gt;Tầng Logic &lt;br&gt;Ứng dụng&lt;/i&gt;&lt;/font&gt;" style="text;html=1;align=center;verticalAlign=middle;resizable=0;points=[];autosize=1;strokeColor=none;fillColor=none;" vertex="1" parent="1">
          <mxGeometry x="170" y="235" width="140" height="70" as="geometry" />
        </mxCell>
        <mxCell id="pD_lM-_f9sU76VxPLS6B-10" value="&lt;font style=&quot;font-size: 18px;&quot;&gt;Game Manager&lt;/font&gt;" style="rounded=1;whiteSpace=wrap;html=1;" vertex="1" parent="1">
          <mxGeometry x="450" y="240" width="120" height="60" as="geometry" />
        </mxCell>
        <mxCell id="pD_lM-_f9sU76VxPLS6B-11" value="&lt;font style=&quot;font-size: 18px;&quot;&gt;Character Control System&lt;/font&gt;" style="rounded=1;whiteSpace=wrap;html=1;" vertex="1" parent="1">
          <mxGeometry x="600" y="240" width="120" height="60" as="geometry" />
        </mxCell>
        <mxCell id="pD_lM-_f9sU76VxPLS6B-12" value="&lt;font style=&quot;font-size: 18px;&quot;&gt;Event System&lt;/font&gt;" style="rounded=1;whiteSpace=wrap;html=1;" vertex="1" parent="1">
          <mxGeometry x="750" y="240" width="120" height="60" as="geometry" />
        </mxCell>
        <mxCell id="pD_lM-_f9sU76VxPLS6B-14" value="" style="rounded=0;whiteSpace=wrap;html=1;strokeColor=#0000FF;shadow=1;" vertex="1" parent="1">
          <mxGeometry x="160" y="370" width="740" height="120" as="geometry" />
        </mxCell>
        <mxCell id="pD_lM-_f9sU76VxPLS6B-15" value="&lt;font style=&quot;font-size: 24px;&quot;&gt;&lt;i&gt;Tầng Dữ liệu&lt;/i&gt;&lt;/font&gt;" style="text;html=1;align=center;verticalAlign=middle;resizable=0;points=[];autosize=1;strokeColor=none;fillColor=none;" vertex="1" parent="1">
          <mxGeometry x="170" y="410" width="160" height="40" as="geometry" />
        </mxCell>
        <mxCell id="pD_lM-_f9sU76VxPLS6B-16" value="&lt;font style=&quot;font-size: 18px;&quot;&gt;Game Database&lt;/font&gt;" style="rounded=1;whiteSpace=wrap;html=1;" vertex="1" parent="1">
          <mxGeometry x="450" y="400" width="120" height="60" as="geometry" />
        </mxCell>
        <mxCell id="pD_lM-_f9sU76VxPLS6B-17" value="&lt;font style=&quot;font-size: 18px;&quot;&gt;Data Storage and Retrieval System&lt;/font&gt;" style="rounded=1;whiteSpace=wrap;html=1;" vertex="1" parent="1">
          <mxGeometry x="600" y="400" width="120" height="60" as="geometry" />
        </mxCell>
        <mxCell id="pD_lM-_f9sU76VxPLS6B-18" value="&lt;font style=&quot;font-size: 18px;&quot;&gt;Peripheral Services&lt;/font&gt;" style="rounded=1;whiteSpace=wrap;html=1;" vertex="1" parent="1">
          <mxGeometry x="750" y="400" width="120" height="60" as="geometry" />
        </mxCell>
      </root>
    </mxGraphModel>
  </diagram>
</mxfile>
